<?xml version="1.0" encoding="utf-8"?>
<!-- Generator: Adobe Illustrator 24.0.0, SVG Export Plug-In . SVG Version: 6.00 Build 0)  -->
<svg version="1.1" id="Capa_1" xmlns="http://www.w3.org/2000/svg" xmlns:xlink="http://www.w3.org/1999/xlink" x="0px" y="0px"
	 viewBox="0 0 70 70" style="enable-background:new 0 0 70 70;" xml:space="preserve">
<style type="text/css">
	.st0{fill:#DF1B22;}
</style>
<g>
	<g>
		<path class="st0" d="M35,53.3c0,1.4-0.1,6.8-4.3,11.3c-3.4,3.6-7.6,4.6-9.3,5c-3.5,0.7-6.3,0.3-7.9,0c-1.7-0.4-5.9-1.3-9.3-4.9
			C0.4,60.5,0.1,55.5,0,54.1c0-6.3,0-12.7,0-19L35,35C35,41.1,35,47.2,35,53.3z"/>
		<path class="st0" d="M70,16.6c0-1.4-0.1-6.8-4.3-11.3c-3.4-3.6-7.6-4.6-9.3-4.9c-3.5-0.7-6.3-0.3-7.9,0c-1.7,0.4-5.9,1.3-9.3,5
			C35.3,9.5,35,14.5,35,16c0,6.3,0,12.7,0,19l35-0.1C70,28.8,70,22.7,70,16.6z"/>
	</g>
</g>
</svg>
